<?xml version="1.0" encoding="UTF-8"?>
<!DOCTYPE svg  PUBLIC '-//W3C//DTD SVG 1.1//EN'  'http://www.w3.org/Graphics/SVG/1.1/DTD/svg11.dtd'>
<svg width="850" height="500" viewBox="0 0 850 500" xmlns="http://www.w3.org/2000/svg">
    <polygon points="674.1640786499873,21.746436089163154 508.3281572999748,21.746436089163183 176.6563145999496,478.2535639108369 342.49223594996215,478.2535639108369 "
        style="fill:orange;opacity:0.9;"
        shape-rendering="geometricPrecision"
    /><polygon points="840.0,250.0 757.0820393249937,364.12678195541844 622.9179606750063,320.5342302750968 622.9179606750063,179.46576972490323 "
        style="fill:orange;opacity:0.9;"
        shape-rendering="geometricPrecision"
    /><polygon points="757.0820393249936,135.87321804458156 840.0,250.0 674.1640786499873,478.2535639108369 508.32815729997475,478.2535639108368 "
        style="fill:orange;opacity:0.9;"
        shape-rendering="geometricPrecision"
    /><polygon points="757.0820393249937,364.12678195541844 840.0,250.0 674.1640786499873,21.746436089163154 508.3281572999748,21.746436089163183 "
        style="fill:blue;opacity:0.9;stroke-linejoin:round;stroke:blue;stroke-width:1"
        shape-rendering="geometricPrecision"
    /><polygon points="840.0,250.0 622.9179606750063,320.5342302750968 622.9179606750063,179.46576972490323 757.0820393249936,135.87321804458156 "
        style="fill:blue;opacity:0.9;stroke-linejoin:round;stroke:blue;stroke-width:1"
        shape-rendering="geometricPrecision"
    /><polygon points="10.820393249936956,249.99999999999997 227.90243257493063,179.46576972490317 227.90243257493063,320.5342302750967 93.73835392494323,364.12678195541844 "
        style="fill:blue;opacity:0.9;"
        shape-rendering="geometricPrecision"
    /><polygon points="176.6563145999496,478.2535639108369 342.49223594996215,478.2535639108369 93.73835392494323,135.8732180445816 10.820393249936956,250.00000000000003 "
        style="fill:blue;opacity:0.9;"
        shape-rendering="geometricPrecision"
    /><polygon points="176.6563145999496,21.746436089163126 342.49223594996215,21.746436089163154 93.73835392494323,364.12678195541844 10.820393249936956,249.99999999999997 "
        style="fill:orange;opacity:0.9;stroke-linejoin:round;stroke:orange;stroke-width:1"
        shape-rendering="geometricPrecision"
    /><polygon points="10.820393249936956,249.99999999999997 93.73835392494323,135.87321804458156 227.90243257493063,179.46576972490317 227.90243257493063,320.5342302750967 "
        style="fill:orange;opacity:0.9;stroke-linejoin:round;stroke:orange;stroke-width:1"
        shape-rendering="geometricPrecision"
    /><polygon points="674.1640786499873,478.2535639108369 508.32815729997475,478.2535639108368 176.6563145999496,21.746436089163126 342.49223594996215,21.746436089163154 "
        style="fill:blue;opacity:0.9;stroke-linejoin:round;stroke:blue;stroke-width:1"
        shape-rendering="geometricPrecision"
    />
</svg>